<mxfile host="app.diagrams.net" agent="Mozilla/5.0 (X11; Linux x86_64; rv:131.0) Gecko/20100101 Firefox/131.0" version="24.8.3">
  <diagram name="Page-1" id="mD85pDy1IY2kpk20CAVG">
    <mxGraphModel dx="2736" dy="1024" grid="1" gridSize="10" guides="1" tooltips="1" connect="1" arrows="1" fold="1" page="1" pageScale="1" pageWidth="827" pageHeight="1169" math="0" shadow="0">
      <root>
        <mxCell id="0" />
        <mxCell id="1" parent="0" />
        <mxCell id="u823IT9AsLEfCYnBtaDn-6" value="&lt;b&gt;&lt;font style=&quot;font-size: 36px;&quot;&gt;Gateway&lt;br&gt;&lt;/font&gt;&lt;/b&gt;&lt;div&gt;&lt;b&gt;&lt;font style=&quot;font-size: 36px;&quot;&gt;9000&lt;/font&gt;&lt;/b&gt;&lt;/div&gt;" style="rounded=1;whiteSpace=wrap;html=1;fillColor=#fff2cc;strokeColor=#d6b656;" vertex="1" parent="1">
          <mxGeometry x="-350" y="200" width="230" height="720" as="geometry" />
        </mxCell>
        <mxCell id="0TYV4tV2DVRm-cyM5zOl-24" value="&lt;font style=&quot;font-size: 24px;&quot;&gt;&lt;b&gt;Product 8080&lt;/b&gt;&lt;/font&gt;" style="rounded=1;whiteSpace=wrap;html=1;fillColor=#dae8fc;strokeColor=#6c8ebf;" parent="1" vertex="1">
          <mxGeometry x="40" y="227" width="400" height="100" as="geometry" />
        </mxCell>
        <mxCell id="0TYV4tV2DVRm-cyM5zOl-25" value="" style="strokeWidth=2;html=1;shape=mxgraph.flowchart.database;whiteSpace=wrap;" parent="1" vertex="1">
          <mxGeometry x="603" y="477" width="130" height="170" as="geometry" />
        </mxCell>
        <mxCell id="0TYV4tV2DVRm-cyM5zOl-26" value="" style="shape=image;verticalLabelPosition=bottom;labelBackgroundColor=default;verticalAlign=top;aspect=fixed;imageAspect=0;image=https://cdn-icons-png.flaticon.com/512/5968/5968313.png;" parent="1" vertex="1">
          <mxGeometry x="632" y="547" width="72" height="72" as="geometry" />
        </mxCell>
        <mxCell id="0TYV4tV2DVRm-cyM5zOl-27" value="" style="strokeWidth=2;html=1;shape=mxgraph.flowchart.database;whiteSpace=wrap;" parent="1" vertex="1">
          <mxGeometry x="603" y="192" width="130" height="170" as="geometry" />
        </mxCell>
        <mxCell id="0TYV4tV2DVRm-cyM5zOl-28" value="" style="dashed=0;outlineConnect=0;html=1;align=center;labelPosition=center;verticalLabelPosition=bottom;verticalAlign=top;shape=mxgraph.weblogos.mongodb" parent="1" vertex="1">
          <mxGeometry x="647.4" y="255.8" width="41.2" height="86.2" as="geometry" />
        </mxCell>
        <mxCell id="0TYV4tV2DVRm-cyM5zOl-29" value="" style="shape=flexArrow;endArrow=classic;html=1;rounded=0;exitX=1;exitY=0.5;exitDx=0;exitDy=0;fillColor=#f5f5f5;strokeColor=#666666;" parent="1" source="0TYV4tV2DVRm-cyM5zOl-24" target="0TYV4tV2DVRm-cyM5zOl-27" edge="1">
          <mxGeometry width="50" height="50" relative="1" as="geometry">
            <mxPoint x="346" y="472" as="sourcePoint" />
            <mxPoint x="396" y="422" as="targetPoint" />
          </mxGeometry>
        </mxCell>
        <mxCell id="0TYV4tV2DVRm-cyM5zOl-30" value="&lt;font style=&quot;font-size: 24px;&quot;&gt;&lt;b&gt;Order 8081&lt;br&gt;&lt;/b&gt;&lt;/font&gt;" style="rounded=1;whiteSpace=wrap;html=1;fillColor=#d5e8d4;strokeColor=#82b366;" parent="1" vertex="1">
          <mxGeometry x="40" y="512" width="400" height="100" as="geometry" />
        </mxCell>
        <mxCell id="0TYV4tV2DVRm-cyM5zOl-31" value="" style="shape=flexArrow;endArrow=classic;html=1;rounded=0;exitX=1;exitY=0.5;exitDx=0;exitDy=0;entryX=0;entryY=0.5;entryDx=0;entryDy=0;entryPerimeter=0;fillColor=#f5f5f5;strokeColor=#666666;" parent="1" source="0TYV4tV2DVRm-cyM5zOl-30" target="0TYV4tV2DVRm-cyM5zOl-25" edge="1">
          <mxGeometry width="50" height="50" relative="1" as="geometry">
            <mxPoint x="346" y="540" as="sourcePoint" />
            <mxPoint x="396" y="490" as="targetPoint" />
          </mxGeometry>
        </mxCell>
        <mxCell id="0TYV4tV2DVRm-cyM5zOl-32" value="" style="strokeWidth=2;html=1;shape=mxgraph.flowchart.database;whiteSpace=wrap;" parent="1" vertex="1">
          <mxGeometry x="603" y="760" width="130" height="170" as="geometry" />
        </mxCell>
        <mxCell id="0TYV4tV2DVRm-cyM5zOl-33" value="" style="shape=image;verticalLabelPosition=bottom;labelBackgroundColor=default;verticalAlign=top;aspect=fixed;imageAspect=0;image=https://cdn-icons-png.flaticon.com/512/5968/5968313.png;" parent="1" vertex="1">
          <mxGeometry x="632" y="830" width="72" height="72" as="geometry" />
        </mxCell>
        <mxCell id="0TYV4tV2DVRm-cyM5zOl-34" value="&lt;div&gt;&lt;font style=&quot;font-size: 24px;&quot;&gt;&lt;b&gt;Inventory 8082&lt;/b&gt;&lt;/font&gt;&lt;/div&gt;" style="rounded=1;whiteSpace=wrap;html=1;fillColor=#f8cecc;strokeColor=#b85450;" parent="1" vertex="1">
          <mxGeometry x="40" y="795" width="400" height="100" as="geometry" />
        </mxCell>
        <mxCell id="0TYV4tV2DVRm-cyM5zOl-35" value="" style="shape=flexArrow;endArrow=classic;html=1;rounded=0;exitX=1;exitY=0.5;exitDx=0;exitDy=0;entryX=0;entryY=0.5;entryDx=0;entryDy=0;entryPerimeter=0;fillColor=#f5f5f5;strokeColor=#666666;" parent="1" source="0TYV4tV2DVRm-cyM5zOl-34" target="0TYV4tV2DVRm-cyM5zOl-32" edge="1">
          <mxGeometry width="50" height="50" relative="1" as="geometry">
            <mxPoint x="346" y="823" as="sourcePoint" />
            <mxPoint x="396" y="773" as="targetPoint" />
          </mxGeometry>
        </mxCell>
        <mxCell id="0TYV4tV2DVRm-cyM5zOl-36" value="&lt;font style=&quot;font-size: 36px;&quot;&gt;27017&lt;/font&gt;" style="shape=image;html=1;verticalAlign=top;verticalLabelPosition=bottom;labelBackgroundColor=#ffffff;imageAspect=0;aspect=fixed;image=https://cdn1.iconfinder.com/data/icons/unicons-line-vol-3/24/docker-128.png" parent="1" vertex="1">
          <mxGeometry x="688.6" y="312" width="100" height="100" as="geometry" />
        </mxCell>
        <mxCell id="0TYV4tV2DVRm-cyM5zOl-37" value="" style="shape=image;html=1;verticalAlign=top;verticalLabelPosition=bottom;labelBackgroundColor=#ffffff;imageAspect=0;aspect=fixed;image=https://cdn1.iconfinder.com/data/icons/unicons-line-vol-3/24/docker-128.png" parent="1" vertex="1">
          <mxGeometry x="688.6" y="585" width="100" height="100" as="geometry" />
        </mxCell>
        <mxCell id="0TYV4tV2DVRm-cyM5zOl-38" value="" style="shape=image;html=1;verticalAlign=top;verticalLabelPosition=bottom;labelBackgroundColor=#ffffff;imageAspect=0;aspect=fixed;image=https://cdn1.iconfinder.com/data/icons/unicons-line-vol-3/24/docker-128.png" parent="1" vertex="1">
          <mxGeometry x="688.6" y="870" width="100" height="100" as="geometry" />
        </mxCell>
        <mxCell id="u823IT9AsLEfCYnBtaDn-1" value="" style="shape=flexArrow;endArrow=classic;html=1;rounded=0;exitX=0.75;exitY=1;exitDx=0;exitDy=0;entryX=0.75;entryY=0;entryDx=0;entryDy=0;" edge="1" parent="1" source="0TYV4tV2DVRm-cyM5zOl-30" target="0TYV4tV2DVRm-cyM5zOl-34">
          <mxGeometry width="50" height="50" relative="1" as="geometry">
            <mxPoint x="300" y="690" as="sourcePoint" />
            <mxPoint x="350" y="640" as="targetPoint" />
          </mxGeometry>
        </mxCell>
        <mxCell id="u823IT9AsLEfCYnBtaDn-3" value="Request à 8082/api/inventory&lt;br style=&quot;font-size: 16px;&quot;&gt;L&#39;item X avec la qte Y est il dispo ?" style="edgeLabel;html=1;align=center;verticalAlign=middle;resizable=0;points=[];fontSize=16;" vertex="1" connectable="0" parent="u823IT9AsLEfCYnBtaDn-1">
          <mxGeometry x="-0.0894" y="-1" relative="1" as="geometry">
            <mxPoint as="offset" />
          </mxGeometry>
        </mxCell>
        <mxCell id="u823IT9AsLEfCYnBtaDn-2" value="" style="shape=flexArrow;endArrow=classic;html=1;rounded=0;exitX=0.25;exitY=0;exitDx=0;exitDy=0;entryX=0.25;entryY=1;entryDx=0;entryDy=0;" edge="1" parent="1" source="0TYV4tV2DVRm-cyM5zOl-34" target="0TYV4tV2DVRm-cyM5zOl-30">
          <mxGeometry width="50" height="50" relative="1" as="geometry">
            <mxPoint x="300" y="690" as="sourcePoint" />
            <mxPoint x="350" y="640" as="targetPoint" />
          </mxGeometry>
        </mxCell>
        <mxCell id="u823IT9AsLEfCYnBtaDn-4" value="Réponse &lt;br style=&quot;font-size: 16px;&quot;&gt;Oui/Non" style="edgeLabel;html=1;align=center;verticalAlign=middle;resizable=0;points=[];fontSize=16;" vertex="1" connectable="0" parent="u823IT9AsLEfCYnBtaDn-2">
          <mxGeometry x="-0.1037" y="-2" relative="1" as="geometry">
            <mxPoint x="2" y="-10" as="offset" />
          </mxGeometry>
        </mxCell>
        <mxCell id="u823IT9AsLEfCYnBtaDn-5" value="" style="image;aspect=fixed;html=1;points=[];align=center;fontSize=12;image=img/lib/azure2/compute/Azure_Spring_Cloud.svg;" vertex="1" parent="1">
          <mxGeometry x="-260" y="340" width="68" height="68" as="geometry" />
        </mxCell>
        <mxCell id="u823IT9AsLEfCYnBtaDn-7" value="" style="shape=flexArrow;endArrow=classic;html=1;rounded=0;exitX=1;exitY=0.25;exitDx=0;exitDy=0;entryX=0;entryY=0.5;entryDx=0;entryDy=0;edgeStyle=orthogonalEdgeStyle;startArrow=block;" edge="1" parent="1" source="u823IT9AsLEfCYnBtaDn-6" target="0TYV4tV2DVRm-cyM5zOl-24">
          <mxGeometry width="50" height="50" relative="1" as="geometry">
            <mxPoint x="160" y="630" as="sourcePoint" />
            <mxPoint x="210" y="580" as="targetPoint" />
          </mxGeometry>
        </mxCell>
        <mxCell id="u823IT9AsLEfCYnBtaDn-8" value="" style="shape=flexArrow;endArrow=classic;html=1;rounded=0;exitX=1;exitY=0.5;exitDx=0;exitDy=0;entryX=0;entryY=0.5;entryDx=0;entryDy=0;" edge="1" parent="1" source="u823IT9AsLEfCYnBtaDn-6" target="0TYV4tV2DVRm-cyM5zOl-30">
          <mxGeometry width="50" height="50" relative="1" as="geometry">
            <mxPoint x="-110" y="409" as="sourcePoint" />
            <mxPoint x="50" y="287" as="targetPoint" />
          </mxGeometry>
        </mxCell>
        <mxCell id="u823IT9AsLEfCYnBtaDn-9" value="" style="shape=flexArrow;endArrow=classic;html=1;rounded=0;exitX=1;exitY=0.75;exitDx=0;exitDy=0;entryX=0;entryY=0.5;entryDx=0;entryDy=0;edgeStyle=orthogonalEdgeStyle;startArrow=block;" edge="1" parent="1" source="u823IT9AsLEfCYnBtaDn-6" target="0TYV4tV2DVRm-cyM5zOl-34">
          <mxGeometry width="50" height="50" relative="1" as="geometry">
            <mxPoint x="-100" y="419" as="sourcePoint" />
            <mxPoint x="60" y="297" as="targetPoint" />
          </mxGeometry>
        </mxCell>
        <mxCell id="u823IT9AsLEfCYnBtaDn-10" value="&lt;font style=&quot;font-size: 36px;&quot;&gt;27017&lt;/font&gt;" style="text;html=1;align=center;verticalAlign=middle;resizable=0;points=[];autosize=1;strokeColor=none;fillColor=none;" vertex="1" parent="1">
          <mxGeometry x="608" y="195.8" width="120" height="60" as="geometry" />
        </mxCell>
        <mxCell id="u823IT9AsLEfCYnBtaDn-11" value="&lt;font style=&quot;font-size: 36px;&quot;&gt;3306&lt;/font&gt;" style="text;html=1;align=center;verticalAlign=middle;resizable=0;points=[];autosize=1;strokeColor=none;fillColor=none;" vertex="1" parent="1">
          <mxGeometry x="618" y="477" width="100" height="60" as="geometry" />
        </mxCell>
        <mxCell id="u823IT9AsLEfCYnBtaDn-12" value="&lt;font style=&quot;font-size: 36px;&quot;&gt;3306&lt;/font&gt;" style="text;html=1;align=center;verticalAlign=middle;resizable=0;points=[];autosize=1;strokeColor=none;fillColor=none;" vertex="1" parent="1">
          <mxGeometry x="618" y="760" width="100" height="60" as="geometry" />
        </mxCell>
        <mxCell id="u823IT9AsLEfCYnBtaDn-13" value="&lt;font style=&quot;font-size: 36px;&quot;&gt;3306&lt;/font&gt;" style="text;html=1;align=center;verticalAlign=middle;resizable=0;points=[];autosize=1;strokeColor=none;fillColor=none;" vertex="1" parent="1">
          <mxGeometry x="688.6" y="665" width="100" height="60" as="geometry" />
        </mxCell>
        <mxCell id="u823IT9AsLEfCYnBtaDn-15" value="&lt;font style=&quot;font-size: 36px;&quot;&gt;3307&lt;/font&gt;" style="text;html=1;align=center;verticalAlign=middle;resizable=0;points=[];autosize=1;strokeColor=none;fillColor=none;" vertex="1" parent="1">
          <mxGeometry x="688.6" y="960" width="100" height="60" as="geometry" />
        </mxCell>
      </root>
    </mxGraphModel>
  </diagram>
</mxfile>
